<svg width="36" height="36" viewBox="0 0 36 36" fill="none" xmlns="http://www.w3.org/2000/svg">
<path fill-rule="evenodd" clip-rule="evenodd" d="M12.9302 35.3334H20.1085V23.8782C20.1085 20.858 20.6823 17.9332 24.4205 17.9332C28.1045 17.9332 28.1536 21.387 28.1536 24.0722V35.3334H35.3332V22.6317C35.3332 16.3977 33.9904 11.6014 26.7149 11.6014C23.2196 11.6014 20.8761 13.5207 19.9171 15.3413H19.8205V12.1773H12.9302V35.3334ZM4.83299 0.666626C7.12977 0.666626 8.99666 2.53641 8.99666 4.83818C8.99666 7.14163 7.12977 9.01175 4.83299 9.01175C2.53015 9.01175 0.666626 7.14163 0.666626 4.83818C0.666626 2.53641 2.53015 0.666626 4.83299 0.666626ZM1.23879 35.3334H8.42346V12.1772H1.23879V35.3334Z" fill="#58351B"/>
</svg>
