<svg width="38" height="31" viewBox="0 0 38 31" fill="none" xmlns="http://www.w3.org/2000/svg">
<path fill-rule="evenodd" clip-rule="evenodd" d="M12.0744 30.6667C26.1629 30.6667 33.8675 18.8694 33.8675 8.63971C33.8675 8.30448 33.8608 7.97091 33.8455 7.63886C35.341 6.54623 36.6411 5.18283 37.6667 3.63046C36.2942 4.24673 34.8172 4.66195 33.2679 4.84926C34.8492 3.89097 36.0634 2.37437 36.636 0.566764C35.1558 1.45351 33.5171 2.09861 31.7725 2.44591C30.3747 0.941084 28.3843 0 26.1814 0C21.9513 0 18.5208 3.46714 18.5208 7.74104C18.5208 8.34871 18.5881 8.93947 18.7196 9.50623C12.3539 9.18278 6.70898 6.10203 2.93174 1.41774C2.27333 2.56153 1.89432 3.89097 1.89432 5.30886C1.89432 7.99476 3.24669 10.3658 5.30286 11.7529C4.04652 11.7138 2.86604 11.3649 1.8337 10.7845C1.83205 10.8168 1.83205 10.8491 1.83205 10.8831C1.83205 14.6329 4.47271 17.763 7.97712 18.4729C7.33379 18.6498 6.65686 18.7452 5.95798 18.7452C5.46459 18.7452 4.98463 18.6958 4.51811 18.6055C5.49311 21.6813 8.32073 23.9195 11.6736 23.9826C9.05157 26.0591 5.74922 27.2966 2.16044 27.2966C1.5425 27.2966 0.932767 27.2608 0.333344 27.1893C3.72321 29.3851 7.74804 30.6667 12.0744 30.6667Z" fill="#58351B"/>
</svg>
