<svg width="70" height="70" viewBox="0 0 70 70" fill="none" xmlns="http://www.w3.org/2000/svg">
<path d="M70 35C70 54.33 54.33 70 35 70C15.67 70 0 54.33 0 35C0 15.67 15.67 0 35 0C54.33 0 70 15.67 70 35Z" fill="white"/>
<path fill-rule="evenodd" clip-rule="evenodd" d="M22.54 15.54C22.54 14.3802 23.4802 13.44 24.64 13.44H47.74C51.9926 13.44 55.44 16.8874 55.44 21.14V46.34C55.44 50.5926 51.9926 54.04 47.74 54.04H27.51C24.3785 54.04 21.84 51.5015 21.84 48.37C21.84 45.2385 24.3785 42.7 27.51 42.7H42.77C43.5819 42.7 44.24 42.0419 44.24 41.23C44.24 40.4181 43.5819 39.76 42.77 39.76H27.4407C24.3526 39.76 21.8323 37.2887 21.7718 34.2012C21.7095 31.0268 24.2657 28.42 27.4407 28.42H42.6993C43.4999 28.42 44.1533 27.7793 44.169 26.9788C44.1852 26.1558 43.5225 25.48 42.6993 25.48H22.54C20.607 25.48 19.04 27.047 19.04 28.98V51.94C19.04 53.0998 18.0998 54.04 16.94 54.04C15.7802 54.04 14.84 53.0998 14.84 51.94V28.98C14.84 24.7274 18.2874 21.28 22.54 21.28H42.6993C45.8743 21.28 48.4305 23.8868 48.3682 27.0612C48.3077 30.1487 45.7874 32.62 42.6993 32.62H27.4407C26.6175 32.62 25.9548 33.2958 25.971 34.1188C25.9867 34.9193 26.6401 35.56 27.4407 35.56H42.77C45.9015 35.56 48.44 38.0985 48.44 41.23C48.44 44.3615 45.9015 46.9 42.77 46.9H27.51C26.6981 46.9 26.04 47.5581 26.04 48.37C26.04 49.1819 26.6981 49.84 27.51 49.84H47.74C49.673 49.84 51.24 48.273 51.24 46.34V21.14C51.24 19.207 49.673 17.64 47.74 17.64H24.64C23.4802 17.64 22.54 16.6998 22.54 15.54Z" fill="#432E28"/>
</svg>
